<svg width="28" height="28" viewBox="0 0 28 28" fill="none" xmlns="http://www.w3.org/2000/svg">
<g id="emojione-monotone:flag-for-south-korea">
<g clip-path="url(#clip0_9810_32103)">
<rect width="28" height="28" rx="14" fill="white"/>
<path id="Vector" d="M3.59022 10.2606L6.54378 5.83051L6.24628 5.63276L5.94966 5.43457L2.99609 9.8647L3.29359 10.0624L3.59022 10.2606ZM4.40134 10.8009L4.69753 10.9991L7.65022 6.56901L7.35403 6.37082L7.05653 6.17307L4.10384 10.6032L4.40134 10.8009ZM5.50778 11.539L5.80528 11.7372L8.75841 7.30751L8.46134 7.10976L8.16472 6.91113L5.21116 11.3413L5.50778 11.539ZM21.1121 18.5281L21.4087 18.7258L22.7864 16.6595L22.4898 16.4618L22.1927 16.2636L20.8155 18.3299L21.1121 18.5281ZM24.4073 17.7406L23.0305 19.8064L23.3267 20.0051L23.6242 20.2028L25.0015 18.1361L24.7048 17.9383L24.4073 17.7406ZM22.516 19.4639L23.8942 17.398L23.5967 17.1998L23.3 17.0021L21.9228 19.0684L22.2194 19.2661L22.516 19.4639ZM20.9148 18.8247L20.6173 18.6269L19.24 20.6937L19.5362 20.891L19.8337 21.0892L21.211 19.0229L20.9148 18.8247ZM22.0221 19.5632L21.7246 19.365L20.3473 21.4318L20.644 21.6299L20.9415 21.8277L22.3187 19.7614L22.0221 19.5632ZM22.8319 20.1035L21.4547 22.1703L21.7513 22.3684L22.0479 22.5658L23.426 20.4994L23.1285 20.3013L22.8319 20.1035ZM3.29359 17.9383L2.99609 18.1361L5.94966 22.5658L6.24628 22.3684L6.54378 22.1703L3.59022 17.7406L3.29359 17.9383ZM5.97547 19.5632L5.67884 19.7614L7.05653 21.8277L7.35403 21.6299L7.65022 21.4318L6.27297 19.365L5.97547 19.5632ZM5.50778 16.4618L5.21116 16.6595L8.16472 21.0892L8.46134 20.891L8.75841 20.6937L5.80528 16.2636L5.50778 16.4618ZM4.10384 17.398L5.48153 19.4639L5.77816 19.2661L6.07566 19.0684L4.69753 17.0021L4.40134 17.1998L4.10384 17.398ZM23.1285 7.69951L23.426 7.50132L22.0479 5.43457L21.7513 5.63276L21.4547 5.83051L22.8328 7.89726L23.1285 7.69951ZM20.9148 9.17607L21.211 8.97788L19.8337 6.91113L19.5362 7.10976L19.24 7.30751L20.6173 9.37382L20.9148 9.17607ZM23.0305 8.19432L24.4073 10.2606L24.7048 10.0624L25.0015 9.8647L23.6242 7.79838L23.3267 7.99613L23.0305 8.19432ZM23.5967 10.8009L23.8942 10.6032L20.9415 6.17307L20.644 6.37082L20.3473 6.56901L23.3 10.9991L23.5967 10.8009ZM22.4898 11.539L22.7864 11.3413L21.4087 9.27451L21.1121 9.4727L20.8155 9.67088L22.1927 11.7372L22.4898 11.539Z" fill="#474747"/>
<path id="Vector_2" d="M14 0C6.26827 0 0 6.26827 0 14C0 21.7317 6.26827 28 14 28C21.7317 28 28 21.7317 28 14C28 6.26827 21.7317 0 14 0ZM14 27.0667C6.79513 27.0667 0.933333 21.2049 0.933333 14C0.933333 6.79513 6.79513 0.933333 14 0.933333C21.2049 0.933333 27.0667 6.79513 27.0667 14C27.0667 21.2049 21.2049 27.0667 14 27.0667Z" fill="white"/>
<path id="Vector_3" d="M10.074 14.9098C11.4185 15.7989 13.2913 15.4245 14.2036 14.1142C15.116 12.8038 16.9408 12.4294 18.3333 13.3186C19.6299 14.161 20.014 15.7989 19.2937 17.0625C20.8784 14.4418 20.1581 11.0255 17.469 9.29393C14.7319 7.51558 11.0344 8.21756 9.20962 10.8851C9.1616 10.9787 9.11358 11.0723 9.06556 11.1191C8.39328 12.4762 8.82546 14.0674 10.074 14.9098Z" fill="#FF0000"/>
<path id="Vector_4" d="M18.366 13.1979C17.024 12.2642 15.1547 12.6573 14.244 14.0332C13.3334 15.4091 11.512 15.8022 10.1221 14.8686C8.82796 13.9841 8.44453 12.2642 9.16347 10.9375C7.53386 13.6893 8.30074 17.2764 10.9848 19.0945C13.7168 20.9618 17.4074 20.2247 19.2287 17.4238C19.2767 17.3255 19.3246 17.2272 19.3725 17.1781C20.0436 15.7531 19.6122 14.0824 18.366 13.1979Z" fill="#006CA2"/>
</g>
<rect x="0.25" y="0.25" width="27.5" height="27.5" rx="13.75" stroke="#9E9E9E" stroke-width="0.5"/>
</g>
<defs>
<clipPath id="clip0_9810_32103">
<rect width="28" height="28" rx="14" fill="white"/>
</clipPath>
</defs>
</svg>
