<svg width="28" height="28" viewBox="0 0 28 28" fill="none" xmlns="http://www.w3.org/2000/svg">
<g id="emojione-monotone:flag-for-japan">
<g clip-path="url(#clip0_9810_32108)">
<rect width="28" height="28" rx="14" fill="white"/>
<path id="Vector" d="M13.9984 19.1616C16.8496 19.1616 19.1609 16.8503 19.1609 13.9991C19.1609 11.1479 16.8496 8.83661 13.9984 8.83661C11.1473 8.83661 8.83594 11.1479 8.83594 13.9991C8.83594 16.8503 11.1473 19.1616 13.9984 19.1616Z" fill="#FF0000"/>
<path id="Vector_2" d="M14 0C6.26827 0 0 6.26827 0 14C0 21.7317 6.26827 28 14 28C21.7317 28 28 21.7317 28 14C28 6.26827 21.7317 0 14 0ZM14 27.0667C6.79513 27.0667 0.933333 21.2049 0.933333 14C0.933333 6.79513 6.79513 0.933333 14 0.933333C21.2049 0.933333 27.0667 6.79513 27.0667 14C27.0667 21.2049 21.2049 27.0667 14 27.0667Z" fill="white"/>
</g>
<rect x="0.25" y="0.25" width="27.5" height="27.5" rx="13.75" stroke="#9E9E9E" stroke-width="0.5"/>
</g>
<defs>
<clipPath id="clip0_9810_32108">
<rect width="28" height="28" rx="14" fill="white"/>
</clipPath>
</defs>
</svg>
