<svg width="28" height="28" viewBox="0 0 28 28" fill="none" xmlns="http://www.w3.org/2000/svg">
<g id="emojione:flag-england">
<g clip-path="url(#clip0_9742_17558)">
<g id="Group">
<path id="Vector" d="M16.8571 0H11.1429C5.57143 1.14286 1.14286 5.52381 0 11.1429V16.8571C1.14286 22.4762 5.57143 26.8571 11.1429 28H16.8571C22.4762 26.8571 26.8571 22.4286 28 16.8571V11.1429C26.8571 5.52381 22.4286 1.14286 16.8571 0Z" fill="white"/>
<path id="Vector_2" d="M27.6169 17.2667C27.8721 16.1966 28.0007 15.1001 28 14C28 12.8753 27.8675 11.7815 27.6169 10.7333H17.2667V0.383136C16.1966 0.127858 15.1001 -0.000735346 14 3.16282e-06C12.8753 3.16282e-06 11.7815 0.132537 10.7333 0.383136V10.7333H0.383136C0.127858 11.8034 -0.000735346 12.8999 3.16282e-06 14C3.16282e-06 15.1247 0.132537 16.2185 0.383136 17.2667H10.7333V27.6169C11.8034 27.8721 12.8999 28.0007 14 28C15.1247 28 16.2185 27.8675 17.2667 27.6169V17.2667H27.6169Z" fill="#FF0000"/>
</g>
</g>
<rect x="0.25" y="0.25" width="27.5" height="27.5" rx="13.75" stroke="#9E9E9E" stroke-width="0.5"/>
</g>
<defs>
<clipPath id="clip0_9742_17558">
<rect width="28" height="28" rx="14" fill="white"/>
</clipPath>
</defs>
</svg>
